# xmcd CD database file
# Copyright (C) 1993-1998 Ti Kan
# 
# Track frame offsets:
#     183
#     13558
#     25720
#     38570
#     50233
#     63108
#     77858
#     89083
#     106358
#     131083
#     147758
#     158433
#     173883
#     201908
#     221408
# 
# Disc length: 3648 seconds
# 
# Revision: 1
# Processed by: cddbd v1.4b41PL1 Copyright (c) Steve Scherf et al.
# Submitted via: DiscPlay 4.0.4
# 
DISCID=c80e3e0f
DTITLE=Albert J rvinen - Guitar
DYEAR=1900
DGENRE=
TTITLE0=The Train Kept A Rollin 
TTITLE1=Let s Have A Ball
TTITLE2=Patchy Moss
TTITLE3=Going To Lousiana
TTITLE4=Sweet Sue
TTITLE5=Hideaway
TTITLE6=Oowee-Oohla
TTITLE7=Got To Know
TTITLE8=Cry Before I Go
TTITLE9=Mama Keep Your Big Mouth Shut
TTITLE10=Buzz The Jerk
TTITLE11=Night Funk
TTITLE12=Walkin The Dog
TTITLE13=High
TTITLE14=Rock Me
EXTD=
EXTT0=
EXTT1=
EXTT2=
EXTT3=
EXTT4=
EXTT5=
EXTT6=
EXTT7=
EXTT8=
EXTT9=
EXTT10=
EXTT11=
EXTT12=
EXTT13=
EXTT14=
PLAYORDER=
